<?xml version="1.0" standalone="no"?><!DOCTYPE svg PUBLIC "-//W3C//DTD SVG 1.1//EN" "http://www.w3.org/Graphics/SVG/1.1/DTD/svg11.dtd"><svg class="icon" width="200px" height="200.00px" viewBox="0 0 1024 1024" version="1.1" xmlns="http://www.w3.org/2000/svg"><path d="M512 1024C230.4 1024 0 793.6 0 512S230.4 0 512 0s512 230.4 512 512-230.4 512-512 512z m0-992C246.4 32 32 246.4 32 512s214.4 480 480 480 480-214.4 480-480S777.6 32 512 32z" fill="#D0021B" /><path d="M652.8 76.8c6.4 0 9.6 3.2 12.8 6.4 9.6 6.4 16 16 22.4 22.4 6.4 6.4 16 22.4 19.2 35.2 12.8 16 19.2 32 19.2 41.6v25.6h3.2c3.2 0 3.2 3.2 3.2 3.2v115.2c0 3.2-3.2 3.2-3.2 3.2h-6.4v22.4c22.4 6.4 44.8 6.4 35.2 25.6-12.8-3.2-22.4-6.4-35.2-9.6L713.6 736h6.4c3.2 0 3.2 3.2 3.2 3.2v115.2c0 3.2-3.2 3.2-3.2 3.2h-9.6v25.6c-3.2 83.2-262.4 96-342.4 48-22.4-12.8-35.2-28.8-35.2-51.2v-19.2h-6.4c-3.2 0-3.2-3.2-3.2-3.2v-115.2c0-3.2 3.2-3.2 3.2-3.2h6.4l-9.6-364.8c-12.8 3.2-22.4 6.4-32 9.6-6.4-19.2 12.8-19.2 32-25.6v-19.2h-6.4c-3.2 0-3.2-3.2-3.2-3.2V214.4c0-3.2 3.2-3.2 3.2-3.2h3.2v-28.8c0-9.6 6.4-22.4 12.8-32 0-12.8 12.8-32 19.2-38.4 6.4-9.6 12.8-16 22.4-22.4 3.2-6.4 9.6-9.6 12.8-9.6 9.6-9.6 22.4-16 32-16h208c6.4 0 16 6.4 25.6 12.8z" fill="#39B649" /><path d="M377.6 748.8c67.2 28.8 224 28.8 307.2 0 0-9.6-6.4-22.4-19.2-35.2l-3.2 9.6c-48 16-176 28.8-268.8 0l-3.2-9.6c-12.8 16-16 25.6-12.8 35.2zM345.6 364.8c3.2 64 3.2 124.8 3.2 188.8 0 9.6 16 9.6 22.4 12.8v-83.2c-3.2-67.2-16-112-25.6-128v9.6zM352 713.6c6.4 3.2 16-3.2 22.4-6.4v-128c-6.4-3.2-22.4-9.6-22.4-6.4-3.2 51.2-3.2 92.8 0 140.8zM704 713.6c3.2-48 3.2-89.6 3.2-137.6-3.2-6.4-19.2 3.2-22.4 6.4v128c3.2 0 12.8 6.4 19.2 3.2zM704 556.8c3.2-67.2 3.2-131.2 6.4-198.4-12.8 12.8-25.6 57.6-25.6 128v83.2c3.2-3.2 19.2-6.4 19.2-12.8zM377.6 425.6c0 3.2 3.2 3.2 3.2 6.4s3.2 3.2 6.4 3.2c73.6-12.8 204.8-12.8 278.4 0h3.2c0-3.2 3.2-3.2 3.2-3.2 6.4-41.6 12.8-67.2 19.2-105.6 0-3.2-3.2-6.4-6.4-9.6-89.6-28.8-233.6-28.8-320 0v6.4c3.2 32 6.4 60.8 12.8 102.4z" fill="#FFFFFF" /></svg>