<?xml version="1.0" encoding="utf-8"?>
<!-- Generator: Adobe Illustrator 21.1.0, SVG Export Plug-In . SVG Version: 6.00 Build 0)  -->
<svg version="1.1" id="图层_1" xmlns="http://www.w3.org/2000/svg" xmlns:xlink="http://www.w3.org/1999/xlink" x="0px" y="0px"
	 viewBox="0 0 28 28" style="enable-background:new 0 0 28 28;" xml:space="preserve">
<style type="text/css">
	.st0{fill:#D0021B;}
	.st1{fill:#B3B3B3;}
	.st2{fill:#FFFFFF;}
</style>
<title>灰 报警</title>
<desc>Created with Sketch.</desc>
<g id="TSP界面">
	<g id="图列" transform="translate(-222.000000, -615.000000)">
		<g id="方向图标" transform="translate(192.000000, 600.000000)">
			<g id="方向圆形24-copy-3" transform="translate(30.000000, 15.000000)">
				<g id="灰-报警">
					<path class="st0" d="M14,28C6.3,28,0,21.7,0,14C0,6.3,6.3,0,14,0s14,6.3,14,14C28,21.7,21.7,28,14,28z M14,1C6.8,1,1,6.8,1,14
						c0,7.2,5.8,13,13,13c7.2,0,13-5.8,13-13C27,6.8,21.2,1,14,1z"/>
					<circle id="Oval-2" class="st1" cx="14" cy="14" r="12"/>
					<polygon id="方向" class="st2" points="14.3,15.1 8.2,19.2 14.3,6.4 20.5,19.2 					"/>
				</g>
			</g>
		</g>
	</g>
</g>
</svg>
