<?xml version="1.0" standalone="no"?><!DOCTYPE svg PUBLIC "-//W3C//DTD SVG 1.1//EN" "http://www.w3.org/Graphics/SVG/1.1/DTD/svg11.dtd"><svg class="icon" width="200px" height="200.00px" viewBox="0 0 1024 1024" version="1.1" xmlns="http://www.w3.org/2000/svg"><path d="M656.384 14.912c5.472-0.64 12.16 4.32 15.648 6.08 9.536 7.584 19.072 17.12 24.768 26.656 6.368 7.936 19.328 26.464 22.4 40.128 13.28 19.04 20.864 38.048 20.864 47.552v30.496h3.84c1.888 0 3.776 1.92 3.776 3.84V303.04c0 1.92-1.92 3.84-3.808 3.84h-5.728l-1.92 22.848c24.8 7.648 49.6 7.648 40.064 30.496-13.344-3.808-26.688-7.616-41.92-11.424l-9.568 419.328h5.76c1.888 0 3.776 1.92 3.776 3.808v133.44c0 1.888-1.92 3.776-3.808 3.776h-9.536v28.608c-1.92 93.376-300.32 110.528-389.92 53.344-24.768-15.232-40-34.304-40-59.072v-22.88h-7.648c-1.92 0-3.808-1.92-3.808-3.808v-133.44c0-1.888 1.92-3.776 3.84-3.776h5.696l-9.536-417.44c-13.344 3.84-24.768 5.76-38.112 9.536-7.648-20.96 15.232-22.848 38.112-28.576v-20.96h-5.728c-1.92 0-3.808-1.92-3.808-3.84V173.44c0-1.92 1.92-3.808 3.84-3.808h3.776V135.36c0-9.536 5.76-24.768 13.344-38.112 0-13.344 15.264-36.224 22.88-43.84 7.616-9.536 15.264-19.072 24.768-26.688 1.92-5.728 9.536-9.536 15.264-9.536C365.376 7.616 378.72 0 388.256 0h237.44c9.12 0 20 6.336 30.688 14.912z" fill="#F5A623" /><path d="M336 784c77.312 32 256 32 352 0 0-10.656-6.784-24.224-20.352-40.64l-3.84 9.504c-55.808 20.032-199.808 31.136-307.968 0l-3.808-9.536c-12.48 16.448-17.824 30.016-16.032 40.672zM300.576 344.96c1.92 74.368 3.84 142.976 3.84 217.28 0 9.568 19.04 11.456 26.656 13.376v-93.408c-3.808-78.144-17.152-129.6-30.496-146.752 0 1.92 1.92 5.728 1.92 7.616 0 1.92-1.92 1.92-1.92 1.92zM308.192 741.44c5.76 3.808 17.152-1.92 24.8-5.728v-146.752c-7.648-1.92-24.8-9.536-26.688-5.728-1.92 57.184 0 104.832 1.92 158.208zM709.568 741.44c1.92-55.296 1.92-102.944 3.84-158.208-1.92-5.728-20.992 1.92-26.72 5.728v146.752c5.728 3.84 17.152 9.536 22.88 5.728zM711.488 562.24c1.92-78.112 3.808-150.56 5.696-226.784-13.344 13.344-28.576 66.72-30.496 146.752v93.408c5.728-1.92 24.8-5.728 24.8-13.344zM338.688 411.68c0 1.92 1.92 3.84 3.84 5.76 1.92 1.888 3.808 1.888 5.696 1.888 83.872-15.264 233.632-15.264 317.504 0h1.92c0-1.92 1.92-1.92 1.92-3.84 7.584-45.728 15.232-78.112 20.928-121.952 0-3.84-1.92-7.648-5.696-9.536-101.024-34.304-266.048-32.416-367.04 0v5.696c7.584 43.84 13.312 76.256 20.928 121.984z" fill="#FFFFFF" /></svg>